<?xml version="1.0" encoding="UTF-8" standalone="no"?>
<!DOCTYPE svg PUBLIC "-//W3C//DTD SVG 1.0//EN" "http://www.w3.org/TR/2001/PR-SVG-20010719/DTD/svg10.dtd">
<svg width="39cm" height="18cm" viewBox="469 -113 773 360" xmlns="http://www.w3.org/2000/svg" xmlns:xlink="http://www.w3.org/1999/xlink">
  <g>
    <rect style="fill: #ffffff" x="594" y="97.5" width="187.7" height="18"/>
    <rect style="fill: none; fill-opacity:0; stroke-width: 2; stroke: #000000" x="594" y="97.5" width="187.7" height="18"/>
    <text font-size="11.2" style="fill: #000000;text-anchor:middle;font-family:sans-serif;font-style:normal;font-weight:700" x="687.85" y="111.5">Autobusai</text>
    <rect style="fill: #ffffff" x="594" y="115.5" width="187.7" height="132"/>
    <rect style="fill: none; fill-opacity:0; stroke-width: 2; stroke: #000000" x="594" y="115.5" width="187.7" height="132"/>
    <polygon style="fill: #000000" points="597,125.5 599,128.5 601,125.5 599,122.5 "/>
    <text font-size="12.8" style="fill: #000000;text-anchor:start;font-family:monospace;font-style:normal;font-weight:normal" x="603" y="131.5">id</text>
    <text font-size="12.8" style="fill: #000000;text-anchor:start;font-family:monospace;font-style:normal;font-weight:normal" x="682.3" y="131.5">int</text>
    <line style="fill: none; fill-opacity:0; stroke-width: 1; stroke: #000000" x1="603" y1="133.1" x2="705.4" y2="133.1"/>
    <ellipse style="fill: #000000" cx="599" cy="141.5" rx="2" ry="2"/>
    <text font-size="12.8" style="fill: #000000;text-anchor:start;font-family:monospace;font-style:normal;font-weight:normal" x="603" y="147.5">modelis</text>
    <text font-size="12.8" style="fill: #000000;text-anchor:start;font-family:monospace;font-style:normal;font-weight:normal" x="682.3" y="147.5">varchar(256)</text>
    <ellipse style="fill: #000000" cx="599" cy="157.5" rx="2" ry="2"/>
    <text font-size="12.8" style="fill: #000000;text-anchor:start;font-family:monospace;font-style:normal;font-weight:normal" x="603" y="163.5">metai</text>
    <text font-size="12.8" style="fill: #000000;text-anchor:start;font-family:monospace;font-style:normal;font-weight:normal" x="682.3" y="163.5">int</text>
    <ellipse style="fill: #000000" cx="599" cy="173.5" rx="2" ry="2"/>
    <text font-size="12.8" style="fill: #000000;text-anchor:start;font-family:monospace;font-style:normal;font-weight:normal" x="603" y="179.5">klase</text>
    <text font-size="12.8" style="fill: #000000;text-anchor:start;font-family:monospace;font-style:normal;font-weight:normal" x="682.3" y="179.5">varchar(256)</text>
    <ellipse style="fill: #000000" cx="599" cy="189.5" rx="2" ry="2"/>
    <text font-size="12.8" style="fill: #000000;text-anchor:start;font-family:monospace;font-style:normal;font-weight:normal" x="603" y="195.5">kaina_km</text>
    <text font-size="12.8" style="fill: #000000;text-anchor:start;font-family:monospace;font-style:normal;font-weight:normal" x="682.3" y="195.5">double</text>
    <ellipse style="fill: #000000" cx="599" cy="205.5" rx="2" ry="2"/>
    <text font-size="12.8" style="fill: #000000;text-anchor:start;font-family:monospace;font-style:normal;font-weight:normal" x="603" y="211.5">kaina_val</text>
    <text font-size="12.8" style="fill: #000000;text-anchor:start;font-family:monospace;font-style:normal;font-weight:normal" x="682.3" y="211.5">double</text>
    <ellipse style="fill: #000000" cx="599" cy="221.5" rx="2" ry="2"/>
    <text font-size="12.8" style="fill: #000000;text-anchor:start;font-family:monospace;font-style:normal;font-weight:normal" x="603" y="227.5">vietu_sk</text>
    <text font-size="12.8" style="fill: #000000;text-anchor:start;font-family:monospace;font-style:normal;font-weight:normal" x="682.3" y="227.5">int</text>
    <ellipse style="fill: #000000" cx="599" cy="237.5" rx="2" ry="2"/>
    <text font-size="12.8" style="fill: #000000;text-anchor:start;font-family:monospace;font-style:normal;font-weight:normal" x="603" y="243.5">imones_id</text>
    <text font-size="12.8" style="fill: #000000;text-anchor:start;font-family:monospace;font-style:normal;font-weight:normal" x="682.3" y="243.5">int</text>
  </g>
  <g>
    <rect style="fill: #ffffff" x="963" y="160.5" width="187.7" height="18"/>
    <rect style="fill: none; fill-opacity:0; stroke-width: 2; stroke: #000000" x="963" y="160.5" width="187.7" height="18"/>
    <text font-size="11.2" style="fill: #000000;text-anchor:middle;font-family:sans-serif;font-style:normal;font-weight:700" x="1056.85" y="174.5">Imones</text>
    <rect style="fill: #ffffff" x="963" y="178.5" width="187.7" height="52"/>
    <rect style="fill: none; fill-opacity:0; stroke-width: 2; stroke: #000000" x="963" y="178.5" width="187.7" height="52"/>
    <polygon style="fill: #000000" points="966,188.5 968,191.5 970,188.5 968,185.5 "/>
    <text font-size="12.8" style="fill: #000000;text-anchor:start;font-family:monospace;font-style:normal;font-weight:normal" x="972" y="194.5">id</text>
    <text font-size="12.8" style="fill: #000000;text-anchor:start;font-family:monospace;font-style:normal;font-weight:normal" x="1051.3" y="194.5">int</text>
    <line style="fill: none; fill-opacity:0; stroke-width: 1; stroke: #000000" x1="972" y1="196.1" x2="1074.4" y2="196.1"/>
    <ellipse style="fill: #000000" cx="968" cy="204.5" rx="2" ry="2"/>
    <text font-size="12.8" style="fill: #000000;text-anchor:start;font-family:monospace;font-style:normal;font-weight:normal" x="972" y="210.5">pav</text>
    <text font-size="12.8" style="fill: #000000;text-anchor:start;font-family:monospace;font-style:normal;font-weight:normal" x="1051.3" y="210.5">varchar(256)</text>
    <ellipse style="fill: #000000" cx="968" cy="220.5" rx="2" ry="2"/>
    <text font-size="12.8" style="fill: #000000;text-anchor:start;font-family:monospace;font-style:normal;font-weight:normal" x="972" y="226.5">kontaktai</text>
    <text font-size="12.8" style="fill: #000000;text-anchor:start;font-family:monospace;font-style:normal;font-weight:normal" x="1051.3" y="226.5">varchar(256)</text>
  </g>
  <g>
    <rect style="fill: #ffffff" x="469.702" y="-112.5" width="233.9" height="18"/>
    <rect style="fill: none; fill-opacity:0; stroke-width: 2; stroke: #000000" x="469.702" y="-112.5" width="233.9" height="18"/>
    <text font-size="11.2" style="fill: #000000;text-anchor:middle;font-family:sans-serif;font-style:normal;font-weight:700" x="586.652" y="-98.5">Keliones</text>
    <rect style="fill: #ffffff" x="469.702" y="-94.5" width="233.9" height="132"/>
    <rect style="fill: none; fill-opacity:0; stroke-width: 2; stroke: #000000" x="469.702" y="-94.5" width="233.9" height="132"/>
    <polygon style="fill: #000000" points="472.702,-84.5 474.702,-81.5 476.702,-84.5 474.702,-87.5 "/>
    <text font-size="12.8" style="fill: #000000;text-anchor:start;font-family:monospace;font-style:normal;font-weight:normal" x="478.702" y="-78.5">id</text>
    <text font-size="12.8" style="fill: #000000;text-anchor:start;font-family:monospace;font-style:normal;font-weight:normal" x="604.202" y="-78.5">int</text>
    <line style="fill: none; fill-opacity:0; stroke-width: 1; stroke: #000000" x1="478.702" y1="-76.9" x2="627.302" y2="-76.9"/>
    <ellipse style="fill: #000000" cx="474.702" cy="-68.5" rx="2" ry="2"/>
    <text font-size="12.8" style="fill: #000000;text-anchor:start;font-family:monospace;font-style:normal;font-weight:normal" x="478.702" y="-62.5">pav</text>
    <text font-size="12.8" style="fill: #000000;text-anchor:start;font-family:monospace;font-style:normal;font-weight:normal" x="604.202" y="-62.5">varchar(256)</text>
    <ellipse style="fill: #000000" cx="474.702" cy="-52.5" rx="2" ry="2"/>
    <text font-size="12.8" style="fill: #000000;text-anchor:start;font-family:monospace;font-style:normal;font-weight:normal" x="478.702" y="-46.5">apras</text>
    <text font-size="12.8" style="fill: #000000;text-anchor:start;font-family:monospace;font-style:normal;font-weight:normal" x="604.202" y="-46.5">text</text>
    <ellipse style="fill: #000000" cx="474.702" cy="-36.5" rx="2" ry="2"/>
    <text font-size="12.8" style="fill: #000000;text-anchor:start;font-family:monospace;font-style:normal;font-weight:normal" x="478.702" y="-30.5">flag_poilsines</text>
    <text font-size="12.8" style="fill: #000000;text-anchor:start;font-family:monospace;font-style:normal;font-weight:normal" x="604.202" y="-30.5">tinyint</text>
    <ellipse style="fill: #000000" cx="474.702" cy="-20.5" rx="2" ry="2"/>
    <text font-size="12.8" style="fill: #000000;text-anchor:start;font-family:monospace;font-style:normal;font-weight:normal" x="478.702" y="-14.5">flag_pazintines</text>
    <text font-size="12.8" style="fill: #000000;text-anchor:start;font-family:monospace;font-style:normal;font-weight:normal" x="604.202" y="-14.5">tinyint</text>
    <ellipse style="fill: #000000" cx="474.702" cy="-4.5" rx="2" ry="2"/>
    <text font-size="12.8" style="fill: #000000;text-anchor:start;font-family:monospace;font-style:normal;font-weight:normal" x="478.702" y="1.5">flag_viskas_isk</text>
    <text font-size="12.8" style="fill: #000000;text-anchor:start;font-family:monospace;font-style:normal;font-weight:normal" x="604.202" y="1.5">tinyint</text>
    <ellipse style="fill: #000000" cx="474.702" cy="11.5" rx="2" ry="2"/>
    <text font-size="12.8" style="fill: #000000;text-anchor:start;font-family:monospace;font-style:normal;font-weight:normal" x="478.702" y="17.5">kaina</text>
    <text font-size="12.8" style="fill: #000000;text-anchor:start;font-family:monospace;font-style:normal;font-weight:normal" x="604.202" y="17.5">decimal</text>
    <ellipse style="fill: #000000" cx="474.702" cy="27.5" rx="2" ry="2"/>
    <text font-size="12.8" style="fill: #000000;text-anchor:start;font-family:monospace;font-style:normal;font-weight:normal" x="478.702" y="33.5">trukme_val</text>
    <text font-size="12.8" style="fill: #000000;text-anchor:start;font-family:monospace;font-style:normal;font-weight:normal" x="604.202" y="33.5">int</text>
  </g>
  <g>
    <rect style="fill: #ffffff" x="807.704" y="-110.5" width="133.8" height="18"/>
    <rect style="fill: none; fill-opacity:0; stroke-width: 2; stroke: #000000" x="807.704" y="-110.5" width="133.8" height="18"/>
    <text font-size="11.2" style="fill: #000000;text-anchor:middle;font-family:sans-serif;font-style:normal;font-weight:700" x="874.604" y="-96.5">Keliones_miestai</text>
    <rect style="fill: #ffffff" x="807.704" y="-92.5" width="133.8" height="68"/>
    <rect style="fill: none; fill-opacity:0; stroke-width: 2; stroke: #000000" x="807.704" y="-92.5" width="133.8" height="68"/>
    <polygon style="fill: #000000" points="810.704,-82.5 812.704,-79.5 814.704,-82.5 812.704,-85.5 "/>
    <text font-size="12.8" style="fill: #000000;text-anchor:start;font-family:monospace;font-style:normal;font-weight:normal" x="816.704" y="-76.5">id</text>
    <text font-size="12.8" style="fill: #000000;text-anchor:start;font-family:monospace;font-style:normal;font-weight:normal" x="911.404" y="-76.5">int</text>
    <line style="fill: none; fill-opacity:0; stroke-width: 1; stroke: #000000" x1="816.704" y1="-74.9" x2="934.504" y2="-74.9"/>
    <ellipse style="fill: #000000" cx="812.704" cy="-66.5" rx="2" ry="2"/>
    <text font-size="12.8" style="fill: #000000;text-anchor:start;font-family:monospace;font-style:normal;font-weight:normal" x="816.704" y="-60.5">miestai_id</text>
    <text font-size="12.8" style="fill: #000000;text-anchor:start;font-family:monospace;font-style:normal;font-weight:normal" x="911.404" y="-60.5">int</text>
    <ellipse style="fill: #000000" cx="812.704" cy="-50.5" rx="2" ry="2"/>
    <text font-size="12.8" style="fill: #000000;text-anchor:start;font-family:monospace;font-style:normal;font-weight:normal" x="816.704" y="-44.5">keliones_id</text>
    <text font-size="12.8" style="fill: #000000;text-anchor:start;font-family:monospace;font-style:normal;font-weight:normal" x="911.404" y="-44.5">int</text>
    <ellipse style="fill: #000000" cx="812.704" cy="-34.5" rx="2" ry="2"/>
    <text font-size="12.8" style="fill: #000000;text-anchor:start;font-family:monospace;font-style:normal;font-weight:normal" x="816.704" y="-28.5">trukme_val</text>
    <text font-size="12.8" style="fill: #000000;text-anchor:start;font-family:monospace;font-style:normal;font-weight:normal" x="911.404" y="-28.5">int</text>
  </g>
  <g>
    <rect style="fill: #ffffff" x="1031.51" y="-109.75" width="210.8" height="18"/>
    <rect style="fill: none; fill-opacity:0; stroke-width: 2; stroke: #000000" x="1031.51" y="-109.75" width="210.8" height="18"/>
    <text font-size="11.2" style="fill: #000000;text-anchor:middle;font-family:sans-serif;font-style:normal;font-weight:700" x="1136.91" y="-95.75">Miestai</text>
    <rect style="fill: #ffffff" x="1031.51" y="-91.75" width="210.8" height="68"/>
    <rect style="fill: none; fill-opacity:0; stroke-width: 2; stroke: #000000" x="1031.51" y="-91.75" width="210.8" height="68"/>
    <polygon style="fill: #000000" points="1034.51,-81.75 1036.51,-78.75 1038.51,-81.75 1036.51,-84.75 "/>
    <text font-size="12.8" style="fill: #000000;text-anchor:start;font-family:monospace;font-style:normal;font-weight:normal" x="1040.51" y="-75.75">id</text>
    <text font-size="12.8" style="fill: #000000;text-anchor:start;font-family:monospace;font-style:normal;font-weight:normal" x="1142.91" y="-75.75">int</text>
    <line style="fill: none; fill-opacity:0; stroke-width: 1; stroke: #000000" x1="1040.51" y1="-74.15" x2="1166.01" y2="-74.15"/>
    <ellipse style="fill: #000000" cx="1036.51" cy="-65.75" rx="2" ry="2"/>
    <text font-size="12.8" style="fill: #000000;text-anchor:start;font-family:monospace;font-style:normal;font-weight:normal" x="1040.51" y="-59.75">pav</text>
    <text font-size="12.8" style="fill: #000000;text-anchor:start;font-family:monospace;font-style:normal;font-weight:normal" x="1142.91" y="-59.75">varchar(64)</text>
    <ellipse style="fill: #000000" cx="1036.51" cy="-49.75" rx="2" ry="2"/>
    <text font-size="12.8" style="fill: #000000;text-anchor:start;font-family:monospace;font-style:normal;font-weight:normal" x="1040.51" y="-43.75">kodas_salies</text>
    <text font-size="12.8" style="fill: #000000;text-anchor:start;font-family:monospace;font-style:normal;font-weight:normal" x="1142.91" y="-43.75">char(3)</text>
    <ellipse style="fill: #000000" cx="1036.51" cy="-33.75" rx="2" ry="2"/>
    <text font-size="12.8" style="fill: #000000;text-anchor:start;font-family:monospace;font-style:normal;font-weight:normal" x="1040.51" y="-27.75">apras</text>
    <text font-size="12.8" style="fill: #000000;text-anchor:start;font-family:monospace;font-style:normal;font-weight:normal" x="1142.91" y="-27.75">varchar(256)</text>
  </g>
  <g>
    <polyline style="fill: none; fill-opacity:0; stroke-width: 2; stroke: #000000" points="703.602,-84.5 757.554,-84.5 757.554,-46.75 801.77,-46.75 "/>
    <polygon style="fill: #000000" points="809.27,-46.75 799.27,-41.75 801.77,-46.75 799.27,-51.75 "/>
    <polygon style="fill: none; fill-opacity:0; stroke-width: 2; stroke: #000000" points="809.27,-46.75 799.27,-41.75 801.77,-46.75 799.27,-51.75 "/>
    <text font-size="9.59961" style="fill: #000000;text-anchor:start;font-family:monospace;font-style:normal;font-weight:normal" x="707.602" y="-88.5">1</text>
    <text font-size="9.59961" style="fill: #000000;text-anchor:end;font-family:monospace;font-style:normal;font-weight:normal" x="807.506" y="-50.75">n</text>
  </g>
  <g>
    <polyline style="fill: none; fill-opacity:0; stroke-width: 2; stroke: #000000" points="1031.51,-81.75 984.506,-81.75 984.506,-63.75 947.242,-63.75 "/>
    <polygon style="fill: #000000" points="939.742,-63.75 949.742,-68.75 947.242,-63.75 949.742,-58.75 "/>
    <polygon style="fill: none; fill-opacity:0; stroke-width: 2; stroke: #000000" points="939.742,-63.75 949.742,-68.75 947.242,-63.75 949.742,-58.75 "/>
    <text font-size="9.59961" style="fill: #000000;text-anchor:end;font-family:monospace;font-style:normal;font-weight:normal" x="1027.51" y="-85.75">1</text>
    <text font-size="9.59961" style="fill: #000000;text-anchor:start;font-family:monospace;font-style:normal;font-weight:normal" x="941.506" y="-67.75">n</text>
  </g>
  <g>
    <polyline style="fill: none; fill-opacity:0; stroke-width: 2; stroke: #000000" points="963,188.5 872.35,188.5 872.35,237.5 791.436,237.5 "/>
    <polygon style="fill: #000000" points="783.936,237.5 793.936,232.5 791.436,237.5 793.936,242.5 "/>
    <polygon style="fill: none; fill-opacity:0; stroke-width: 2; stroke: #000000" points="783.936,237.5 793.936,232.5 791.436,237.5 793.936,242.5 "/>
    <text font-size="9.59961" style="fill: #000000;text-anchor:end;font-family:monospace;font-style:normal;font-weight:normal" x="959" y="184.5">1</text>
    <text font-size="9.59961" style="fill: #000000;text-anchor:start;font-family:monospace;font-style:normal;font-weight:normal" x="785.7" y="233.5">n</text>
  </g>
</svg>
